<svg xmlns="http://www.w3.org/2000/svg" viewBox="0 0 1024.1 1023.9"><defs><style>.cls-1{fill:#191919;}.cls-2{fill:none;}.cls-3{fill:#efa500;}.cls-4{fill:#232323;}</style></defs><title>Asset 17</title><g id="Layer_2" data-name="Layer 2"><g id="Layer_1-2" data-name="Layer 1"><path class="cls-1" d="M1023.8,240.9a252.47,252.47,0,0,0-3.4-34.1,257.17,257.17,0,0,0-6.5-28.5,235.6,235.6,0,0,0-12.9-34.7c-.4-1-.9-2-1.3-2.9a241.13,241.13,0,0,0-47.6-67.5C906.6,27.5,843.7,0,774.4,0,681.7,0,608.5,50.7,557.6,122.5c-3.4,4.9-7.2,9.8-10.3,15-66.4,111-70.4,259.2-70.4,259.2h0l6.3,10.9,5.3,9.2L513,459.5l36.1,63,29.6,51.7c5.7,11.3,12.9,24.8,20.5,39.2-4.2-8-8.2-15.4-12-22.6,1.5-4.7,2.8-9.2,4.2-13.7a1013.57,1013.57,0,0,1,42.2-109,1031,1031,0,0,1,76.4-140,98.52,98.52,0,0,1-31-71.6c0-53.8,42.6-97.7,95.2-97.7,52.4,0,95.2,43.7,95.2,97.7,0,53.8-42.6,97.7-95.2,97.7a93.24,93.24,0,0,1-49.6-14.6,1034.13,1034.13,0,0,0-75.2,138.7,1097.06,1097.06,0,0,0-40.5,104.9c-3.4,10.3-6.5,20.5-9.5,30.8.4.6.6,1.2.9,1.6,3.8,7,7.6,14.2,11.6,21.5,12.3,23,24.7,46.6,34,65.9v.2a198.62,198.62,0,0,0,9.5,17.7,99.16,99.16,0,0,0,9.9,13.7,62.37,62.37,0,0,0,11,10.1,33.4,33.4,0,0,0,19.6,6.6c31.5,0,56.6-49.2,60.4-56.8,0-.2.2-.2.2-.4l.2-.2.2-.4h0c4.4-9.8,8.5-18.5,12.2-25.9,46-91.5,148-196,176.3-224.7,28.5-29.3,39.5-43.5,55.9-79.6a18.89,18.89,0,0,0,1.1-2.5c5.5-13.1,15.6-43.9,19.8-79.6a291,291,0,0,0,1.9-31.4C1024,246.9,1023.8,243.8,1023.8,240.9Z"/><path d="M774.4,0C636.5,0,524.8,114.7,524.8,256.3c0,88,43.3,165.6,109,211.8a1031,1031,0,0,1,76.4-140,98.52,98.52,0,0,1-31-71.6c0-53.8,42.6-97.7,95.2-97.7,52.4,0,95.2,43.7,95.2,97.7,0,53.8-42.6,97.7-95.2,97.7a93.24,93.24,0,0,1-49.6-14.6,1034.13,1034.13,0,0,0-75.2,138.7,243.32,243.32,0,0,0,124.8,34.5c137.9,0,249.6-114.7,249.6-256.3C1024,114.7,912.1,0,774.4,0Z"/><path class="cls-2" d="M253.3,695.4c-.4,0-.9-.2-1.3,0C252.3,695.2,252.7,695.4,253.3,695.4Z"/><path class="cls-2" d="M155.4,557.9c13.1,33.4,32.7,78,54.1,107.3h0C188.1,635.9,168.5,591.4,155.4,557.9Z"/><path class="cls-2" d="M219.6,677.6c7.2,7.8,14.6,13.3,22,16C234.3,691.1,226.9,685.6,219.6,677.6Z"/><path class="cls-2" d="M211.1,639.8a117.61,117.61,0,0,1-1.5,25.4c.2.2.2.4.4.6-.2-.2-.2-.4-.4-.4-2.1,12.5-6.1,22-12.5,27.3a17.55,17.55,0,0,1-3.8,2.1,23.7,23.7,0,0,0-21.5-14.2,23.31,23.31,0,0,0-11.4,3.3c-35.7-44.7-78.8-155.6-91.2-188.6a12.6,12.6,0,0,0,2.7-7.4,12,12,0,1,0-24,0,11.84,11.84,0,0,0,9.7,11.7c12.5,33.5,55.9,145.5,94,192.9a24.86,24.86,0,0,0-3.6,12.3c0,13.5,10.6,24.4,23.7,24.4,12,0,21.5-9.2,23.2-21.1a37.51,37.51,0,0,0,9.9-5.7c7-5.7,12-14,15-24.8,3-10.5,4.2-23.4,3.6-38.6-1.7-35.7-.9-74.1,3.2-107.7-3-6-6.5-12.5-9.9-18.7C208.8,558.2,209.6,610.3,211.1,639.8Z"/><path d="M253.3,695.4c-.4,0-.9-.2-1.3,0a23.65,23.65,0,0,1-10.3-1.8c-7.4-2.5-14.8-8-22-16-3,10.7-8.2,19.1-15,24.8a35.67,35.67,0,0,1-9.9,5.7c-1.7,11.9-11.2,21.1-23.2,21.1-13.1,0-23.7-10.9-23.7-24.4a24.86,24.86,0,0,1,3.6-12.3c-38.3-47.5-81.6-159.4-94.1-193a12.1,12.1,0,1,1,14.3-11.7,12.42,12.42,0,0,1-2.7,7.4c12.3,33,55.5,143.8,91.2,188.6a22.3,22.3,0,0,1,11.4-3.3,23.87,23.87,0,0,1,21.5,14.2,34.12,34.12,0,0,0,3.8-2.1c6.5-5.5,10.4-15,12.5-27.3-21.5-29.3-41-73.9-54.1-107.3-10.1-25.9-16.4-45.2-16.4-45.2h0c-.2-.6-1.3-5.5-11-23.6-6.1-11.3-10.8-20.3-13.9-25.7C106,447.1,84,427,59.5,427,26.6,427,0,454.3,0,488a59.21,59.21,0,0,0,6.1,27.1S21.3,540.5,38.6,590c17.3,49.3,40.5,143,40.5,143,12,39.8,48.1,68.9,90.8,68.9a91.51,91.51,0,0,0,53.8-17.2c20.9-13.7,49.2-41.7,57.4-96.4,1.3-9.2,2.5-17.6,3.4-25.6C275.1,684.2,264.3,694,253.3,695.4Z"/><path class="cls-2" d="M216.6,512.8h0c-1.7-3.5-3.4-6.6-5.3-10.1C213.2,506.2,214.9,509.5,216.6,512.8Z"/><path d="M139.3,512.2c0-.2.2-.4.2-.6a8.66,8.66,0,0,0,.2-1,2.84,2.84,0,0,1,.4-1.2c.4-1.2.8-2.7,1.3-4.5l.6-1.8c.6-1.8,1.3-3.9,2.1-5.9.2-.8.6-1.4.8-2.1h0c.4-1,.8-1.8,1.1-2.7,0-.2.2-.4.2-.6.4-.8.6-1.6.9-2.3h0a10.89,10.89,0,0,0,.9-2.1l.6-1.2c.4-.8.8-1.6,1.1-2.1.6-1,1.1-2,1.7-2.9.2-.4.6-1,.8-1.4h0a11,11,0,0,1,.9-1.4,11,11,0,0,0,.9-1.4.7.7,0,0,1,.2-.4,15.26,15.26,0,0,0,1.1-1.6,11.92,11.92,0,0,1,1.5-1.8l.8-.8c.2-.4.6-.6.8-.8.8-.8,1.5-1.4,2.1-2.1.2,0,.2-.2.4-.2a8.85,8.85,0,0,1,1.7-1.2,7,7,0,0,1,.9-.6,7.54,7.54,0,0,1,1.7-1c.8-.4,1.3-.6,2.1-1a4.19,4.19,0,0,1,1.5-.4,15.46,15.46,0,0,1,1.5-.4,4.12,4.12,0,0,0,.9-.2h3.2a2,2,0,0,1,1.1.2c.4,0,.8.2,1.1.2s.8.2,1.1.2a11.64,11.64,0,0,1,1.5.6,6.81,6.81,0,0,1,2.1,1,10.91,10.91,0,0,1,1.1.6,7.54,7.54,0,0,1,1.7,1c.6.4,1.1.8,1.7,1.2.8.6,1.5,1.2,2.3,1.8a11,11,0,0,1,1.1,1c.8.8,1.5,1.4,2.5,2.3.6.6,1.1,1.2,1.9,2a12,12,0,0,1,1.1,1.2l.2.2c.2.2.4.6.6.8a11.22,11.22,0,0,1,1.3,1.6c.4.6.9,1,1.3,1.6s.9,1.2,1.3,1.8.9,1.2,1.3,1.8a84.14,84.14,0,0,1,5.7,8.8c.6,1,1.1,2,1.7,2.9s1.1,2,1.7,2.9a27.91,27.91,0,0,0,1.9,3.3c1.9,3.3,3.6,6.6,5.3,9.9,6.1-35.5,17.3-66.7,37.6-80a40.35,40.35,0,0,1,16.7-5.9c4.9-14.2,18-24.4,33.4-24.4,19.8,0,35.7,16.4,35.7,36.7a36,36,0,0,1-13.7,28.5c30.8,68.9,108.3,237,180.1,343.9a57,57,0,0,1,27.9-7.4h.8c9.5-51.9,26.4-131.5,52.1-213.2-3-5.9-6.1-11.5-8.5-16.6l-29.6-51.7-36.1-63-24.5-42.7-5.3-9.2-6.3-10.9h0s-7.2-7.8-17.7-19.3c-7.8-8.6-22.2-26.3-34.4-38.6-28.3-34.9-71.1-57.1-118.7-57.1-68.2,0-126.5,42.9-147,105.9l-.4,1.4a443.68,443.68,0,0,0-14.2,60.7,511.28,511.28,0,0,0-5.1,63h0C139.1,512.4,139.1,512.4,139.3,512.2Z"/><path d="M696.1,751.3c-6.3,0-12.9-2-19.6-6.6a59.4,59.4,0,0,1-11-10.1,128.66,128.66,0,0,1-9.9-13.7,151.74,151.74,0,0,1-9.5-17.7V703c-9.1-19.3-21.7-42.9-34-65.9-4-7.2-7.8-14.4-11.6-21.5-.4-.6-.6-1.2-.9-1.6-22.4,74.7-37.2,145.9-46,193.7a60.64,60.64,0,0,1,40.7,57.5c0,33.7-26.6,61-59.5,61s-59.5-27.3-59.5-61A61.54,61.54,0,0,1,492,823.1C418.5,714.1,340.7,545,309.9,475.5a44.29,44.29,0,0,1-5.1.6c-19.6,0-35.3-16-35.5-35.9a33.52,33.52,0,0,0-8,3.5c-18.4,12.1-29.1,46.4-34.4,88.2,4.9,9.6,9.5,18.7,13.7,27.5h0c2.7,5.5,5.1,10.9,7.6,16,16.9,36.1,28.1,63.8,33.4,77.6,0,.2,0,.2.2.4,1.1,2.9,2.1,5.5,2.7,7,0,.2,0,.2.2.2a14.49,14.49,0,0,1,.8,2.3c5.1,8.8,8.9,17.7,13.3,26.5,49,96.4,86.4,216.1,86.4,216.1,17.3,68.3,77.7,118.4,149.5,118.4,55.9,0,97.1-30.2,125.6-75.9,2.5-4.1,4.9-8.2,7.2-12.5a118.34,118.34,0,0,0,6.3-12.3c3.8-7.8,7.2-15.8,10.4-24.2.6-1.6,1.3-3.3,1.9-4.9.4-1.2.8-2.1,1.1-3.3h0c.6-2.5,5.3-17.6,12.3-38.4.4-1.2.8-2.1,1.1-3.3,2.7-8.2,5.7-17.2,8.9-26.7,2.3-6.6,4.6-13.3,7-20.3,14.1-40.4,30-84.5,40.3-107.5C752.7,702.2,727.6,751.3,696.1,751.3Z"/><path class="cls-1" d="M155.4,557.9c13.1,33.4,32.7,78,54.1,107.3a132.43,132.43,0,0,0,1.5-25.4c-1.3-29.3-2.1-81.5,5.7-127-1.7-3.3-3.4-6.6-5.3-10.1a17.74,17.74,0,0,0-1.9-3.3c-.6-1-1.1-2-1.7-2.9s-1.1-2-1.7-2.9c-1.9-3.1-3.8-6-5.7-8.8-.4-.6-.9-1.2-1.3-1.8s-.9-1.2-1.3-1.8a11.22,11.22,0,0,0-1.3-1.6,18.26,18.26,0,0,0-1.3-1.6c-.2-.2-.4-.6-.6-.8l-.2-.2a12,12,0,0,1-1.1-1.2c-.6-.6-1.3-1.4-1.9-2-.8-.8-1.7-1.6-2.5-2.3a11,11,0,0,1-1.1-1c-.8-.6-1.5-1.2-2.3-1.8-.6-.4-1.1-.8-1.7-1.2s-1.1-.6-1.7-1a10.91,10.91,0,0,1-1.1-.6,20.92,20.92,0,0,1-2.1-1,11.64,11.64,0,0,1-1.5-.6,2.34,2.34,0,0,0-1.1-.2c-.3,0-.8-.2-1.1-.2a2,2,0,0,1-1.1-.2h-3.2a6.37,6.37,0,0,0-.9.2,4.19,4.19,0,0,0-1.5.4c-.6.2-.9.2-1.5.4a10,10,0,0,0-2.1,1,7.54,7.54,0,0,0-1.7,1,7,7,0,0,0-.9.6c-.6.4-1.1.8-1.7,1.2a.7.7,0,0,1-.4.2,13.89,13.89,0,0,0-2.1,2.1l-.8.8-.8.8c-.6.6-.9,1.2-1.5,1.8a6.45,6.45,0,0,0-1.1,1.6c0,.2-.2.2-.2.4a11,11,0,0,0-.9,1.4c-.3.4-.6,1-.9,1.4h0c-.2.4-.6,1-.8,1.4-.6,1-1.1,2-1.7,2.9-.4.8-.8,1.6-1.1,2.1l-.6,1.2a10.89,10.89,0,0,0-.9,2.1h0a8.38,8.38,0,0,0-.9,2.3c0,.2-.2.4-.2.6-.4,1-.8,1.8-1.1,2.7h0c-.2.8-.6,1.4-.8,2.1-.8,2.1-1.5,4.1-2.1,5.9l-.6,1.8c-.6,1.8-.9,3.3-1.3,4.5-.2.4-.2.8-.4,1.2,0,.4-.2.6-.2,1,0,.2-.2.4-.2.6v.4h0C139.1,512.6,145.4,531.9,155.4,557.9Z"/><path class="cls-3" d="M226.5,531.5c-3-6-6.5-12.5-9.9-18.7v.2C220,519,223.4,525.5,226.5,531.5Z"/><path class="cls-4" d="M284,660.1c-.6-1.6-1.5-3.9-2.7-7,0-.2,0-.2-.2-.4-5.3-13.8-16.5-41.5-33.4-77.6-2.5-5.1-4.9-10.5-7.6-16h0c-4.2-8.8-8.7-17.9-13.7-27.5-4.2,33.5-4.9,71.8-3.2,107.7.8,15.2-.6,28.1-3.6,38.6,7.2,7.8,14.6,13.3,22,16a26.36,26.36,0,0,0,10.3,1.8c.4,0,.9.2,1.3,0,11-1.4,21.8-11.1,31.7-32.8h0s-.4-1-.8-2.3Z"/><path class="cls-3" d="M241.7,693.6a26.36,26.36,0,0,0,10.3,1.8A26.36,26.36,0,0,1,241.7,693.6Z"/><path class="cls-3" d="M209.6,665.1h0c.2.2.2.4.4.6C209.8,665.5,209.6,665.3,209.6,665.1Z"/></g></g></svg>