<?xml version="1.0" encoding="utf-8"?>
<!-- Generator: Adobe Illustrator 22.1.0, SVG Export Plug-In . SVG Version: 6.00 Build 0)  -->
<svg version="1.1" id="Layer_1" xmlns="http://www.w3.org/2000/svg" xmlns:xlink="http://www.w3.org/1999/xlink" x="0px" y="0px"
	 viewBox="0 0 1024 1024" style="enable-background:new 0 0 1024 1024;" xml:space="preserve">
<style type="text/css">
	.st0{fill:#EFA500;}
	.st1{fill:#FFB600;}
	.st2{fill:none;}
	.st3{display:none;fill:#EFA500;}
</style>
<path class="st0" d="M1023.9,240.8c-0.4-11.7-1.5-23-3.4-34.1c-1.7-9.8-3.8-19.3-6.5-28.5c-3.4-12.1-7.8-23.6-12.9-34.7
	c-0.4-1-0.9-2-1.3-2.9c-8.2-17-18-33-29.6-47.4c-5.7-7-11.6-13.8-18-20.1C906.7,27.4,843.8-0.1,774.5-0.1
	c-92.7,0-165.9,50.7-216.8,122.5c-3.4,4.9-7.2,9.8-10.3,15C481,248.4,477,396.6,477,396.6l0,0l6.3,10.9l5.3,9.2l24.5,42.7l36.1,63
	l29.6,51.7c5.7,11.3,12.9,24.8,20.5,39.2c-4.2-8-8.2-15.4-12-22.6c1.5-4.7,2.8-9.2,4.2-13.7c12.7-39.6,27.2-75.9,42.2-109
	c25.8-57.3,53.2-104.5,76.4-140c-18.8-17.7-31-43.3-31-71.6c0-53.8,42.6-97.7,95.2-97.7c52.4,0,95.2,43.7,95.2,97.7
	c0,53.8-42.6,97.7-95.2,97.7c-18.2,0-35-5.5-49.6-14.6c-22.8,35.3-49.8,81.9-75.2,138.7c-14.2,32-28.1,66.9-40.5,104.9
	c-3.4,10.3-6.5,20.5-9.5,30.8c0.4,0.6,0.6,1.2,0.9,1.6c3.8,7,7.6,14.2,11.6,21.5c12.3,23,24.7,46.6,34,65.9v0.2
	c3.2,6.8,6.5,12.7,9.5,17.7c3.2,5.3,6.6,9.9,9.9,13.7c3.8,4.3,7.4,7.6,11,10.1c6.6,4.7,13.3,6.6,19.6,6.6
	c31.5,0,56.6-49.2,60.4-56.8c0-0.2,0.2-0.2,0.2-0.4l0.2-0.2l0.2-0.4l0,0c4.4-9.8,8.5-18.5,12.2-25.9c46-91.5,148-196,176.3-224.7
	c28.5-29.3,39.5-43.5,55.9-79.6c0.4-0.8,0.8-1.6,1.1-2.5c5.5-13.1,15.6-43.9,19.8-79.6c1.1-10.1,1.9-20.7,1.9-31.4
	C1024.1,246.8,1023.9,243.7,1023.9,240.8z"/>
<path class="st1" d="M774.5-0.1c-137.9,0-249.6,114.7-249.6,256.3c0,88,43.3,165.6,109,211.8c25.8-57.3,53.2-104.5,76.4-140
	c-18.8-17.7-31-43.3-31-71.6c0-53.8,42.6-97.7,95.2-97.7c52.4,0,95.2,43.7,95.2,97.7c0,53.8-42.6,97.7-95.2,97.7
	c-18.2,0-35-5.5-49.6-14.6c-22.8,35.3-49.8,81.9-75.2,138.7c36.7,21.8,79.2,34.5,124.8,34.5c137.9,0,249.6-114.7,249.6-256.3
	C1024.1,114.6,912.2-0.1,774.5-0.1z"/>
<g>
	<path class="st2" d="M253.4,695.3c-0.4,0-0.9-0.2-1.3,0C252.4,695.1,252.8,695.3,253.4,695.3z"/>
	<path class="st2" d="M155.5,557.8c13.1,33.4,32.7,78,54.1,107.3l0,0C188.2,635.8,168.6,591.3,155.5,557.8z"/>
	<path class="st2" d="M219.7,677.5c7.2,7.8,14.6,13.3,22,16C234.4,691,227,685.5,219.7,677.5z"/>
	<path class="st2" d="M211.2,639.7c0.4,9.8-0.2,17.9-1.5,25.4c0.2,0.2,0.2,0.4,0.4,0.6c-0.2-0.2-0.2-0.4-0.4-0.4
		c-2.1,12.5-6.1,22-12.5,27.3c-1.1,1-2.5,1.4-3.8,2.1c-3.8-8.4-12-14.2-21.5-14.2c-4.2,0-8,1.4-11.4,3.3
		c-35.7-44.7-78.8-155.6-91.2-188.6c1.5-2.1,2.7-4.5,2.7-7.4c0-6.8-5.3-12.3-12-12.3s-12,5.5-12,12.3c0,5.9,4.2,10.7,9.7,11.7
		c12.5,33.5,55.9,145.5,94,192.9c-2.1,3.7-3.6,7.8-3.6,12.3c0,13.5,10.6,24.4,23.7,24.4c12,0,21.5-9.2,23.2-21.1
		c3.2-1.4,6.6-2.9,9.9-5.7c7-5.7,12-14,15-24.8c3-10.5,4.2-23.4,3.6-38.6c-1.7-35.7-0.9-74.1,3.2-107.7c-3-6-6.5-12.5-9.9-18.7
		C208.9,558.1,209.7,610.2,211.2,639.7z"/>
	<path class="st1" d="M253.4,695.3c-0.4,0-0.9-0.2-1.3,0c-3.4,0.2-6.8-0.4-10.3-1.8c-7.4-2.5-14.8-8-22-16c-3,10.7-8.2,19.1-15,24.8
		c-3.2,2.7-6.5,4.3-9.9,5.7c-1.7,11.9-11.2,21.1-23.2,21.1c-13.1,0-23.7-10.9-23.7-24.4c0-4.5,1.5-8.6,3.6-12.3
		C113.3,644.9,70,533,57.5,499.4c-5.5-1.2-9.7-5.9-9.7-11.7c0-6.8,5.3-12.3,12-12.3s12,5.5,12,12.3c0,2.7-1.1,5.3-2.7,7.4
		c12.3,33,55.5,143.8,91.2,188.6c3.4-2,7.2-3.3,11.4-3.3c9.5,0,17.7,5.9,21.5,14.2c1.3-0.8,2.7-1.2,3.8-2.1
		c6.5-5.5,10.4-15,12.5-27.3c-21.5-29.3-41-73.9-54.1-107.3C145.3,532,139,512.7,139,512.7l0,0l0,0c-0.2-0.6-1.3-5.5-11-23.6
		c-6.1-11.3-10.8-20.3-13.9-25.7c-8-16.4-30-36.5-54.5-36.5c-32.9,0-59.5,27.3-59.5,61c0,9.8,1.9,18.7,6.1,27.1
		c0,0,15.2,25.4,32.5,74.9c17.3,49.3,40.5,143,40.5,143c12,39.8,48.1,68.9,90.8,68.9c19.9,0,38.6-6.2,53.8-17.2
		c20.9-13.7,49.2-41.7,57.4-96.4c1.3-9.2,2.5-17.6,3.4-25.6C275.2,684.1,264.4,693.9,253.4,695.3z"/>
	<path class="st2" d="M216.7,512.7L216.7,512.7c-1.7-3.5-3.4-6.6-5.3-10.1C213.3,506.1,215,509.4,216.7,512.7z"/>
	<path class="st1" d="M139.4,512.1c0-0.2,0.2-0.4,0.2-0.6c0-0.2,0.2-0.6,0.2-1c0-0.4,0.2-0.8,0.4-1.2c0.4-1.2,0.8-2.7,1.3-4.5
		c0.2-0.6,0.4-1.2,0.6-1.8c0.6-1.8,1.3-3.9,2.1-5.9c0.2-0.8,0.6-1.4,0.8-2.1l0,0c0.4-1,0.8-1.8,1.1-2.7c0-0.2,0.2-0.4,0.2-0.6
		c0.4-0.8,0.6-1.6,0.9-2.3l0,0c0.4-0.8,0.8-1.6,0.9-2.1c0.2-0.4,0.4-0.8,0.6-1.2c0.4-0.8,0.8-1.6,1.1-2.1c0.6-1,1.1-2,1.7-2.9
		c0.2-0.4,0.6-1,0.8-1.4l0,0c0.2-0.4,0.6-1,0.9-1.4c0.4-0.4,0.6-1,0.9-1.4c0-0.2,0.2-0.4,0.2-0.4c0.4-0.6,0.8-1,1.1-1.6
		c0.4-0.6,0.9-1.2,1.5-1.8c0.2-0.2,0.6-0.6,0.8-0.8c0.2-0.4,0.6-0.6,0.8-0.8c0.8-0.8,1.5-1.4,2.1-2.1c0.2,0,0.2-0.2,0.4-0.2
		c0.6-0.4,1.1-1,1.7-1.2c0.2-0.2,0.6-0.4,0.9-0.6c0.6-0.4,1.1-0.8,1.7-1c0.8-0.4,1.3-0.6,2.1-1c0.6-0.2,0.9-0.4,1.5-0.4
		c0.4-0.2,0.9-0.2,1.5-0.4c0.4,0,0.8-0.2,0.9-0.2c0.4,0,0.8,0,1.1,0c0.6,0,1.3,0,2.1,0c0.4,0,0.8,0,1.1,0.2c0.4,0,0.8,0.2,1.1,0.2
		s0.8,0.2,1.1,0.2c0.6,0.2,1.1,0.4,1.5,0.6c0.8,0.2,1.5,0.6,2.1,1c0.4,0.2,0.8,0.4,1.1,0.6c0.6,0.2,1.1,0.6,1.7,1s1.1,0.8,1.7,1.2
		c0.8,0.6,1.5,1.2,2.3,1.8c0.4,0.4,0.8,0.6,1.1,1c0.8,0.8,1.5,1.4,2.5,2.3c0.6,0.6,1.1,1.2,1.9,2c0.4,0.4,0.8,0.8,1.1,1.2l0.2,0.2
		c0.2,0.2,0.4,0.6,0.6,0.8c0.4,0.4,0.9,1,1.3,1.6c0.4,0.6,0.9,1,1.3,1.6s0.9,1.2,1.3,1.8c0.4,0.6,0.9,1.2,1.3,1.8
		c1.9,2.5,3.8,5.5,5.7,8.8c0.6,1,1.1,2,1.7,2.9c0.6,1,1.1,2,1.7,2.9c0.6,1.2,1.1,2.1,1.9,3.3c1.9,3.3,3.6,6.6,5.3,9.9
		c6.1-35.5,17.3-66.7,37.6-80c5.1-3.3,10.8-5.1,16.7-5.9c4.9-14.2,18-24.4,33.4-24.4c19.8,0,35.7,16.4,35.7,36.7
		c0,11.7-5.3,21.8-13.7,28.5c30.8,68.9,108.3,237,180.1,343.9c8.4-4.7,17.9-7.4,27.9-7.4c0.2,0,0.6,0,0.8,0
		c9.5-51.9,26.4-131.5,52.1-213.2c-3-5.9-6.1-11.5-8.5-16.6l-29.6-51.7l-36.1-63l-24.5-42.7l-5.3-9.2l-6.3-10.9l0,0
		c0,0-7.2-7.8-17.7-19.3c-7.8-8.6-22.2-26.3-34.4-38.6c-28.3-34.9-71.1-57.1-118.7-57.1c-68.2,0-126.5,42.9-147,105.9l-0.4,1.4
		c0,0-9.5,29.6-14.2,60.7c-4.6,30-5.1,61.2-5.1,63l0,0C139.2,512.3,139.2,512.3,139.4,512.1z"/>
	<path class="st1" d="M696.2,751.2c-6.3,0-12.9-2-19.6-6.6c-3.6-2.5-7.4-5.9-11-10.1c-3.2-3.9-6.6-8.4-9.9-13.7
		c-3.2-5.1-6.5-11.1-9.5-17.7v-0.2c-9.1-19.3-21.7-42.9-34-65.9c-4-7.2-7.8-14.4-11.6-21.5c-0.4-0.6-0.6-1.2-0.9-1.6
		c-22.4,74.7-37.2,145.9-46,193.7c23.6,8.2,40.7,30.6,40.7,57.5c0,33.7-26.6,61-59.5,61s-59.5-27.3-59.5-61
		c0-16.4,6.5-31.2,16.7-42.1C418.6,714,340.8,544.9,310,475.4c-1.7,0.2-3.4,0.6-5.1,0.6c-19.6,0-35.3-16-35.5-35.9
		c-2.8,0.8-5.5,2-8,3.5c-18.4,12.1-29.1,46.4-34.4,88.2c4.9,9.6,9.5,18.7,13.7,27.5l0,0c2.7,5.5,5.1,10.9,7.6,16
		c16.9,36.1,28.1,63.8,33.4,77.6c0,0.2,0,0.2,0.2,0.4c1.1,2.9,2.1,5.5,2.7,7c0,0.2,0,0.2,0.2,0.2c0.6,1.4,0.8,2.3,0.8,2.3
		c5.1,8.8,8.9,17.7,13.3,26.5c49,96.4,86.4,216.1,86.4,216.1c17.3,68.3,77.7,118.4,149.5,118.4c55.9,0,97.1-30.2,125.6-75.9
		c2.5-4.1,4.9-8.2,7.2-12.5c2.3-3.9,4.4-8,6.3-12.3c3.8-7.8,7.2-15.8,10.4-24.2c0.6-1.6,1.3-3.3,1.9-4.9c0.4-1.2,0.8-2.1,1.1-3.3
		l0,0c0.6-2.5,5.3-17.6,12.3-38.4c0.4-1.2,0.8-2.1,1.1-3.3c2.7-8.2,5.7-17.2,8.9-26.7c2.3-6.6,4.6-13.3,7-20.3
		c14.1-40.4,30-84.5,40.3-107.5C752.8,702.1,727.7,751.2,696.2,751.2z"/>
	<path class="st0" d="M155.5,557.8c13.1,33.4,32.7,78,54.1,107.3c1.1-7.4,1.9-15.8,1.5-25.4c-1.3-29.3-2.1-81.5,5.7-127
		c-1.7-3.3-3.4-6.6-5.3-10.1c-0.6-1.2-1.1-2.3-1.9-3.3c-0.6-1-1.1-2-1.7-2.9c-0.6-1-1.1-2-1.7-2.9c-1.9-3.1-3.8-6-5.7-8.8
		c-0.4-0.6-0.9-1.2-1.3-1.8c-0.4-0.6-0.9-1.2-1.3-1.8s-0.9-1.2-1.3-1.6c-0.4-0.6-0.8-1-1.3-1.6c-0.2-0.2-0.4-0.6-0.6-0.8l-0.2-0.2
		c-0.4-0.4-0.8-0.8-1.1-1.2c-0.6-0.6-1.3-1.4-1.9-2c-0.8-0.8-1.7-1.6-2.5-2.3c-0.4-0.4-0.8-0.6-1.1-1c-0.8-0.6-1.5-1.2-2.3-1.8
		c-0.6-0.4-1.1-0.8-1.7-1.2c-0.6-0.4-1.1-0.6-1.7-1c-0.4-0.2-0.8-0.4-1.1-0.6c-0.8-0.4-1.5-0.6-2.1-1c-0.6-0.2-1.1-0.4-1.5-0.6
		c-0.4-0.2-0.8-0.2-1.1-0.2s-0.8-0.2-1.1-0.2c-0.4,0-0.8,0-1.1-0.2c-0.8,0-1.5,0-2.1,0c-0.4,0-0.8,0-1.1,0s-0.8,0.2-0.9,0.2
		c-0.6,0-0.9,0.2-1.5,0.4c-0.6,0.2-0.9,0.2-1.5,0.4c-0.8,0.2-1.3,0.6-2.1,1c-0.6,0.2-1.1,0.6-1.7,1c-0.4,0.2-0.6,0.4-0.9,0.6
		c-0.6,0.4-1.1,0.8-1.7,1.2c0,0-0.2,0.2-0.4,0.2c-0.8,0.6-1.5,1.4-2.1,2.1c-0.2,0.2-0.6,0.6-0.8,0.8c-0.2,0.2-0.6,0.6-0.8,0.8
		c-0.6,0.6-0.9,1.2-1.5,1.8c-0.4,0.4-0.8,1-1.1,1.6c0,0.2-0.2,0.2-0.2,0.4c-0.4,0.4-0.6,1-0.9,1.4s-0.6,1-0.9,1.4l0,0
		c-0.2,0.4-0.6,1-0.8,1.4c-0.6,1-1.1,2-1.7,2.9c-0.4,0.8-0.8,1.6-1.1,2.1c-0.2,0.4-0.4,0.8-0.6,1.2c-0.4,0.8-0.8,1.6-0.9,2.1l0,0
		c-0.4,0.8-0.8,1.6-0.9,2.3c0,0.2-0.2,0.4-0.2,0.6c-0.4,1-0.8,1.8-1.1,2.7l0,0c-0.2,0.8-0.6,1.4-0.8,2.1c-0.8,2.1-1.5,4.1-2.1,5.9
		c-0.2,0.6-0.4,1.2-0.6,1.8c-0.6,1.8-0.9,3.3-1.3,4.5c-0.2,0.4-0.2,0.8-0.4,1.2c0,0.4-0.2,0.6-0.2,1c0,0.2-0.2,0.4-0.2,0.6
		c0,0.2,0,0.2,0,0.4l0,0l0,0l0,0C139.2,512.5,145.5,531.8,155.5,557.8z"/>
	<path class="st0" d="M155.5,557.8c-10.1-25.9-16.3-45.3-16.3-45.3l0,0l0,0C139.2,512.5,145.3,531.8,155.5,557.8z"/>
	<path class="st0" d="M226.6,531.4c-3-6-6.5-12.5-9.9-18.7c0,0,0,0,0,0.2C220.1,518.9,223.5,525.4,226.6,531.4z"/>
	<path class="st0" d="M284.1,660c-0.6-1.6-1.5-3.9-2.7-7c0-0.2,0-0.2-0.2-0.4c-5.3-13.8-16.5-41.5-33.4-77.6
		c-2.5-5.1-4.9-10.5-7.6-16l0,0c-4.2-8.8-8.7-17.9-13.7-27.5c-4.2,33.5-4.9,71.8-3.2,107.7c0.8,15.2-0.6,28.1-3.6,38.6
		c7.2,7.8,14.6,13.3,22,16c3.4,1.2,6.8,2,10.3,1.8c0.4,0,0.9,0.2,1.3,0c11-1.4,21.8-11.1,31.7-32.8l0,0l0,0c0,0-0.4-1-0.8-2.3
		C284.1,660,284.1,660,284.1,660z"/>
	<path class="st0" d="M241.8,693.5c3.4,1.2,6.8,2,10.3,1.8C248.6,695.5,245.2,694.7,241.8,693.5z"/>
	<path class="st3" d="M375.9,601.9c5.8-0.7,11.5-5.7,16.7-16.8l0,0C387.4,596.2,381.7,601.2,375.9,601.9z"/>
	<path class="st0" d="M209.7,665L209.7,665c0.2,0.2,0.2,0.4,0.4,0.6C209.9,665.4,209.7,665.2,209.7,665z"/>
	<path class="st0" d="M373,540.2c8.9,18.5,14.8,32.7,17.6,39.8C387.8,572.9,382,558.8,373,540.2z"/>
</g>
</svg>
